# xmcd
#
# Track frame offsets:
#	150
#	34226
#	57007
#	71198
#	93007
#	129636
#	144946
#	165463
#	205419
#	231808
#	266306
#	273015
#
# Disc length: 3930 seconds
#
# Revision: 0
# Processed by: cddbd v1.5.2PL0 Copyright (c) Steve Scherf et al.
# Submitted via: EZCDAudioConverter 2.1.7.1
#
DISCID=a00f580c
DTITLE=Bob Newhart - Complete Albums 1960-62 1/2
DYEAR=1900
DGENRE=
TTITLE0=Abe Lincoln Vs Madison Avenue
TTITLE1=The Cruise Of The U.S.S. Codfish
TTITLE2=Merchandising The Wright Brothers
TTITLE3=The Krushchev Landing Rehearsal
TTITLE4=Driving Instructor
TTITLE5=Nobody Will Ever Play Baseball
TTITLE6=Automation And A Private In Washington's Army
TTITLE7=The Grace L. Ferguson Airline (And Storm Door Co.)
TTITLE8=Bus Drivers School
TTITLE9=Retirement Party
TTITLE10=An Infinite Number Of Monkeys
TTITLE11=Ledge Psychology
EXTD=
EXTT0=
EXTT1=
EXTT2=
EXTT3=
EXTT4=
EXTT5=
EXTT6=
EXTT7=
EXTT8=
EXTT9=
EXTT10=
EXTT11=
PLAYORDER=
